<svg xmlns="http://www.w3.org/2000/svg" width="1024" height="1024" viewBox="0 0 1024 1024">
  <defs>
    <filter id="shadow" x="-20%" y="-20%" width="140%" height="140%">
      <feDropShadow dx="0" dy="18" stdDeviation="22" flood-color="#000" flood-opacity=".12"/>
    </filter>
  </defs>
  <circle cx="512" cy="512" r="472" fill="#F7BDD6"/>
  <g filter="url(#shadow)">
    <circle cx="512" cy="548" r="292" fill="#fff"/>
    <circle cx="286" cy="260" r="92" fill="#fff"/>
    <circle cx="738" cy="260" r="92" fill="#fff"/>
    <circle cx="286" cy="260" r="56" fill="#F7BDD6"/>
    <circle cx="738" cy="260" r="56" fill="#F7BDD6"/>
    <circle cx="512" cy="558" r="195" fill="#FCE9F1"/>
    <circle cx="430" cy="520" r="34" fill="#5A3849"/>
    <circle cx="594" cy="520" r="34" fill="#5A3849"/>
    <circle cx="438" cy="512" r="10" fill="#fff"/>
    <circle cx="602" cy="512" r="10" fill="#fff"/>
    <rect x="482" y="608" width="60" height="58" rx="20" fill="#5A3849"/>
    <path d="M512 666v44" stroke="#5A3849" stroke-width="12" stroke-linecap="round"/>
    <path d="M460 706c24-26 76-26 102 0" fill="none" stroke="#5A3849" stroke-width="10" stroke-linecap="round"/>
    <path d="M512 706c24-26 76-26 102 0" fill="none" stroke="#5A3849" stroke-width="10" stroke-linecap="round"/>
    <circle cx="358" cy="656" r="34" fill="#FFD2DF"/>
    <circle cx="666" cy="656" r="34" fill="#FFD2DF"/>
    <path d="M709 346l18-18 26 0 18 18 0 26-18 18-13 13-31-31 0-26z" fill="#E3B84A"/>
  </g>
</svg>